<svg xmlns="http://www.w3.org/2000/svg" viewBox="0 0 512 512">
  <defs>
    <linearGradient id="fishGradient" x1="0%" y1="0%" x2="100%" y2="100%">
      <stop offset="0%" style="stop-color:#22d3ee;stop-opacity:1" />
      <stop offset="100%" style="stop-color:#2563eb;stop-opacity:1" />
    </linearGradient>
  </defs>
  <rect width="512" height="512" rx="80" fill="url(#fishGradient)"/>
  <g transform="translate(128, 128) scale(4.5)">
    <path d="M6.5 12c.94 0 1.93.04 2.96.12 3.65.31 7.77 1.21 11.37 3.88 2.03 1.51 3.68 3.62 4.67 6.24.52 1.37.82 2.87.9 4.47v.59a9.8 9.8 0 0 1-.9 4.47 12.5 12.5 0 0 1-4.67 6.24c-3.6 2.67-7.72 3.57-11.37 3.88-1.03.08-2.02.12-2.96.12a41 41 0 0 1-2.96-.12c-3.65-.31-7.77-1.21-11.37-3.88a12.5 12.5 0 0 1-4.67-6.24A9.8 9.8 0 0 1 2 27.3v-.59a9.8 9.8 0 0 1 .9-4.47 12.5 12.5 0 0 1 4.67-6.24c3.6-2.67 7.72-3.57 11.37-3.88C4.57 12.04 5.56 12 6.5 12zM20 27a1 1 0 1 0 0-2 1 1 0 0 0 0 2z" 
    fill="white" stroke="white" stroke-width="1" stroke-linecap="round" stroke-linejoin="round"/>
  </g>
</svg>
